<?xml version="1.0" encoding="utf-8"?>
<!-- Generator: Adobe Illustrator 16.0.0, SVG Export Plug-In . SVG Version: 6.00 Build 0)  -->
<!DOCTYPE svg PUBLIC "-//W3C//DTD SVG 1.1//EN" "http://www.w3.org/Graphics/SVG/1.1/DTD/svg11.dtd">
<svg version="1.1" id="Layer_1" xmlns="http://www.w3.org/2000/svg" xmlns:xlink="http://www.w3.org/1999/xlink" x="0px" y="0px"
	 width="512px" height="512px" viewBox="0 0 512 512" enable-background="new 0 0 512 512" xml:space="preserve">
<g>
	<path fill="#03699D" d="M512.117,256.059c0,141.418-114.641,256.059-256.059,256.059C114.639,512.118,0,397.478,0,256.059
		C0,114.646,114.64,0,256.059,0C397.478,0,512.117,114.646,512.117,256.059z"/>
	<path fill="#FFFFFF" d="M392.003,320.221l10.109-78.389h-77.625v-50.048c0-22.692,6.328-38.159,38.869-38.159l41.476-0.023V83.496
		c-7.161-0.96-31.78-3.094-60.474-3.094c-59.854,0-100.803,36.538-100.803,103.627v57.803H175.86v78.389h67.695v201.133h80.932
		V320.221H392.003z"/>
</g>
</svg>
